<svg width="500" height="500" version="1.1" xmlns="http://www.w3.org/2000/svg" desc="Created with imagetracer.js version 1.2.6" ><path fill="rgb(0,0,0)" stroke="rgb(0,0,0)" stroke-width="1" opacity="0" d="M 0 0 L 500 0 L 500 500 L 0 500 L 0 0 Z M 249 29 L 247 30 L 240 38 Q 241 40 238 39 L 235 44 Q 236 46 233 45 L 231 49 Q 232 51 229 50 L 229 52 L 227 52 L 225 56 Q 226 58 223 57 L 220 62 Q 221 64 218 63 Q 215 70 209 75 Q 210 77 207 76 L 205 81 L 192 96 Q 193 98 190 97 L 188 101 Q 189 103 186 102 L 186 104 L 184 104 Q 182 110 177 114 Q 178 116 175 115 L 164 130 Q 165 132 162 131 L 160 135 Q 161 137 158 136 L 151 146 Q 152 148 149 147 L 145 153 Q 146 155 143 154 L 137 163 Q 138 165 135 164 L 123 180 Q 124 182 121 181 L 119 185 Q 120 187 117 186 L 117 188 L 115 188 L 110 196 Q 111 198 108 197 L 108 199 L 106 199 L 99 210 L 100 215 L 120 228 Q 122 227 121 230 Q 136 238 148 249 L 158 254 L 158 259 L 169 289 L 178 295 Q 185 294 188 297 L 212 297 L 208 321 L 205 328 Q 206 331 203 330 L 198 343 L 199 357 L 203 364 Q 202 366 205 365 L 214 386 L 215 387 L 190 387 L 181 383 Q 173 382 170 384 L 166 389 L 164 401 L 162 405 Q 161 412 163 416 L 169 419 L 183 419 L 186 417 Q 187 410 182 409 L 184 406 L 210 416 L 218 418 L 227 418 L 228 419 Q 239 420 246 416 L 252 405 L 252 383 L 250 379 L 249 370 L 260 368 L 273 363 L 274 363 L 272 369 L 274 386 L 276 389 L 276 403 L 274 406 Q 276 411 273 413 L 274 418 L 279 419 L 316 419 L 318 418 L 319 416 L 318 412 L 303 403 Q 300 404 301 401 L 297 399 L 299 384 L 301 380 L 301 374 L 303 369 L 303 363 L 305 358 L 305 339 L 303 336 L 294 330 L 280 329 L 279 328 L 263 329 L 265 326 Q 264 323 267 324 L 275 314 Q 274 311 277 312 L 282 303 L 293 303 Q 295 300 302 301 L 325 291 Q 330 289 331 283 L 332 256 L 346 256 L 350 252 Q 352 253 351 250 L 358 246 Q 360 247 359 244 L 376 232 Q 378 233 377 230 L 384 226 Q 386 227 385 224 L 397 217 L 401 212 Q 400 204 394 201 Q 395 198 392 199 L 392 197 L 390 197 L 385 190 Q 386 187 383 188 L 383 186 L 381 186 L 379 183 Q 380 180 377 181 L 374 176 L 351 149 Q 352 146 349 147 L 349 145 L 347 145 L 346 143 Q 347 140 344 141 L 336 131 Q 337 128 334 129 L 331 125 Q 332 122 329 123 Q 326 116 320 112 Q 321 109 318 110 L 312 102 Q 313 99 310 100 L 299 86 Q 300 83 297 84 L 297 82 L 295 82 Q 291 73 283 67 Q 284 64 281 65 L 273 55 Q 274 52 271 53 L 269 50 Q 270 47 267 48 L 267 46 L 265 46 Q 263 40 258 37 L 256 34 L 252 29 L 249 29 Z " /><path fill="rgb(0,0,0)" stroke="rgb(0,0,0)" stroke-width="1" opacity="0" d="M 303.5 266 L 307.5 267 L 309 266.5 Q 309.5 270.5 306.5 271 L 298.5 272 L 299 270.5 Q 297.3 265.3 302.5 267 L 303.5 266 Z " /><path fill="rgb(0,0,0)" stroke="rgb(0,0,0)" stroke-width="1" opacity="0" d="M 189.5 267 L 211 267.5 L 203.5 270 L 193.5 271 L 191 270 Q 192.1 267.3 189.5 268 L 189.5 267 Z " /><path fill="rgb(4,22,15)" stroke="rgb(4,22,15)" stroke-width="1" opacity="0.996078431372549" d="M 242.5 45 L 241.5 47 L 242.5 45 Z " /><path fill="rgb(4,22,15)" stroke="rgb(4,22,15)" stroke-width="1" opacity="0.996078431372549" d="M 341.5 149 L 340.5 151 L 341.5 149 Z " /><path fill="rgb(4,22,15)" stroke="rgb(4,22,15)" stroke-width="1" opacity="0.996078431372549" d="M 141.5 170 L 142.5 172 L 141.5 170 Z " /><path fill="rgb(4,22,15)" stroke="rgb(4,22,15)" stroke-width="1" opacity="0.996078431372549" d="M 131.5 181 L 130.5 183 L 131.5 181 Z " /><path fill="rgb(4,22,15)" stroke="rgb(4,22,15)" stroke-width="1" opacity="0.996078431372549" d="M 113 214 L 389 214.5 L 378 221 L 376.5 224 L 364 232 Q 365.1 234.7 362.5 234 L 358 237.5 Q 358.8 239.8 356.5 239 L 354 239.5 L 350.5 244 L 347 245 L 345.5 248 L 342.5 250 L 340.5 249 L 337.5 250 L 334.5 249 L 331.5 250 L 329.5 249 L 327.5 249 L 321.5 250 L 319.5 249 L 317.5 250 L 314.5 249 L 312 251.5 L 311 260.5 L 307.5 266 L 302.5 265 L 301 265.5 L 303 260.5 L 303 258.5 L 302 254.5 L 303 251.5 L 296.5 240 L 287.5 235 L 275.5 235 L 273.5 234 L 269.5 237 L 268 236.5 L 266.5 239 L 261 243.5 L 253 260.5 L 253 262.5 L 251.5 265 L 244.5 267 L 240.5 265 L 238.5 265 L 225.5 265 L 217.5 267 L 215.5 267 L 209.5 266 L 205.5 266 L 188.5 266 L 186 263.5 L 181 257.5 L 181.5 256 Q 179.3 256.8 180 254.5 L 173.5 246 L 166.5 244 L 165.5 245 L 154.5 246 L 151 244 L 149.5 241 L 148 241.5 Q 148.8 239.3 146.5 240 L 138 235 Q 139.1 232.3 136.5 233 L 133 230.5 L 133.5 229 L 129.5 228 L 113 216 L 113 214 Z " /><path fill="rgb(28,35,11)" stroke="rgb(28,35,11)" stroke-width="1" opacity="0.9921568627450981" d="M 249.5 35 L 251 38 Q 253.7 36.9 253 39.5 L 261 48.5 L 259.5 48 Q 257.3 48.8 258 46.5 L 252.5 40 Q 249.9 40.7 251 38 L 248 38 L 246.5 41 L 245 40.5 L 249.5 35 Z " /><path fill="rgb(28,35,11)" stroke="rgb(28,35,11)" stroke-width="1" opacity="0.9921568627450981" d="M 243.5 43 L 241 46.5 L 231 61 Q 228.3 59.9 229 62.5 L 226 64.5 L 233 54 Q 235.7 55.1 235 52.5 L 243.5 43 Z " /><path fill="rgb(28,35,11)" stroke="rgb(28,35,11)" stroke-width="1" opacity="0.9921568627450981" d="M 263.5 52 L 270 59.5 L 268 60 L 263.5 52 Z " /><path fill="rgb(28,35,11)" stroke="rgb(28,35,11)" stroke-width="1" opacity="0.9921568627450981" d="M 270.5 61 L 274 66 L 276 66.5 L 274.5 67 L 270.5 61 Z " /><path fill="rgb(28,35,11)" stroke="rgb(28,35,11)" stroke-width="1" opacity="0.9921568627450981" d="M 224.5 66 L 224 67.5 L 210.5 85 L 210 82.5 L 214 77 Q 216.7 78.1 216 75.5 L 224.5 66 Z " /><path fill="rgb(28,35,11)" stroke="rgb(28,35,11)" stroke-width="1" opacity="0.9921568627450981" d="M 276.5 68 L 287 80.5 L 282 76.5 L 276.5 68 Z " /><path fill="rgb(28,35,11)" stroke="rgb(28,35,11)" stroke-width="1" opacity="0.9921568627450981" d="M 287.5 82 L 290.5 86 L 287.5 82 Z " /><path fill="rgb(28,35,11)" stroke="rgb(28,35,11)" stroke-width="1" opacity="0.9921568627450981" d="M 208.5 85 L 209 86.5 L 202 93.5 L 202.5 95 L 201 93.5 L 205 89.5 L 208.5 85 Z " /><path fill="rgb(28,35,11)" stroke="rgb(28,35,11)" stroke-width="1" opacity="0.9921568627450981" d="M 292.5 87 L 298 95 Q 300.7 93.9 300 96.5 L 310 108.5 L 309 108.5 L 307 105.5 L 300 99.5 L 297 93 Q 294.3 94.1 295 91.5 L 292.5 87 Z " /><path fill="rgb(28,35,11)" stroke="rgb(28,35,11)" stroke-width="1" opacity="0.9921568627450981" d="M 200.5 95 L 200 96.5 L 178.5 123 L 177 122.5 L 179 122 L 185 112 Q 187.7 113.1 187 110.5 L 200.5 95 Z " /><path fill="rgb(28,35,11)" stroke="rgb(28,35,11)" stroke-width="1" opacity="0.9921568627450981" d="M 311.5 110 L 319 120 Q 321.7 118.9 321 121.5 L 327 130 Q 329.7 128.9 329 131.5 L 356 164.5 L 355 164.5 L 335 139 Q 332.3 140.1 333 137.5 L 316 117.5 L 311.5 110 Z " /><path fill="rgb(28,35,11)" stroke="rgb(28,35,11)" stroke-width="1" opacity="0.9921568627450981" d="M 176.5 124 L 177 125.5 L 174 127 L 173.5 129 L 173 127.5 L 176.5 124 Z " /><path fill="rgb(28,35,11)" stroke="rgb(28,35,11)" stroke-width="1" opacity="0.9921568627450981" d="M 171.5 130 L 173 130.5 L 159.5 146 L 161 143.5 L 167 134 L 170 132.5 L 171.5 130 Z " /><path fill="rgb(28,35,11)" stroke="rgb(28,35,11)" stroke-width="1" opacity="0.9921568627450981" d="M 157.5 147 L 159 147.5 L 155 153 Q 152.3 151.9 153 154.5 L 151 155.5 L 157.5 147 Z " /><path fill="rgb(28,35,11)" stroke="rgb(28,35,11)" stroke-width="1" opacity="0.9921568627450981" d="M 149.5 157 L 149 158.5 L 148 161.5 L 134.5 176 L 137 172.5 L 140 167 Q 142.7 168.1 142 165.5 L 149.5 157 Z " /><path fill="rgb(28,35,11)" stroke="rgb(28,35,11)" stroke-width="1" opacity="0.9921568627450981" d="M 357.5 165 L 358 167 Q 360.7 165.9 360 168.5 L 366 176.5 L 364 175.5 L 361 170 Q 358.3 171.1 359 168.5 Q 356 167.5 357.5 165 Z " /><path fill="rgb(28,35,11)" stroke="rgb(28,35,11)" stroke-width="1" opacity="0.9921568627450981" d="M 132 177 L 134 177.5 L 110.5 206 L 110 204.5 L 129 182.5 L 132 177 Z " /><path fill="rgb(28,35,11)" stroke="rgb(28,35,11)" stroke-width="1" opacity="0.9921568627450981" d="M 369.5 180 L 376 189 Q 378.7 187.9 378 190.5 L 393 207.5 L 128.5 208 L 128.5 207 L 389.5 207 L 390 205.5 L 387 204 L 383 197 L 379 194.5 L 369 181.5 L 369.5 180 Z " /><path fill="rgb(28,35,11)" stroke="rgb(28,35,11)" stroke-width="1" opacity="0.9921568627450981" d="M 108.5 206 L 109.5 207 L 126 207.5 L 107.5 208 L 108.5 206 Z " /><path fill="rgb(28,35,11)" stroke="rgb(28,35,11)" stroke-width="1" opacity="0.9921568627450981" d="M 109.5 213 L 152 213.5 L 113 214 Q 111.9 216.7 114.5 216 L 117.5 220 Q 111.4 217.3 109.5 213 Z " /><path fill="rgb(28,35,11)" stroke="rgb(28,35,11)" stroke-width="1" opacity="0.9921568627450981" d="M 354.5 213 L 391 213.5 Q 389.8 216.3 388.5 214 L 354.5 214 L 354.5 213 Z " /><path fill="rgb(28,35,11)" stroke="rgb(28,35,11)" stroke-width="1" opacity="0.9921568627450981" d="M 387.5 215 L 385.5 218 L 387.5 215 Z " /><path fill="rgb(28,35,11)" stroke="rgb(28,35,11)" stroke-width="1" opacity="0.9921568627450981" d="M 383.5 218 L 380.5 222 L 377.5 224 L 378 222.5 Q 377.3 220.3 379.5 221 L 383.5 218 Z " /><path fill="rgb(28,35,11)" stroke="rgb(28,35,11)" stroke-width="1" opacity="0.9921568627450981" d="M 120.5 221 L 121.5 223 L 120.5 221 Z " /><path fill="rgb(28,35,11)" stroke="rgb(28,35,11)" stroke-width="1" opacity="0.9921568627450981" d="M 123.5 223 L 124.5 225 L 123.5 223 Z " /><path fill="rgb(28,35,11)" stroke="rgb(28,35,11)" stroke-width="1" opacity="0.9921568627450981" d="M 375.5 224 L 373.5 227 L 375.5 224 Z " /><path fill="rgb(28,35,11)" stroke="rgb(28,35,11)" stroke-width="1" opacity="0.9921568627450981" d="M 127.5 226 L 128.5 228 L 127.5 226 Z " /><path fill="rgb(28,35,11)" stroke="rgb(28,35,11)" stroke-width="1" opacity="0.9921568627450981" d="M 131.5 227 L 131.5 229 L 134 229.5 Q 132 233 130 228.5 L 131.5 227 Z " /><path fill="rgb(28,35,11)" stroke="rgb(28,35,11)" stroke-width="1" opacity="0.9921568627450981" d="M 370.5 228 L 368.5 231 L 364.5 233 L 364.5 232 L 370.5 228 Z " /><path fill="rgb(28,35,11)" stroke="rgb(28,35,11)" stroke-width="1" opacity="0.9921568627450981" d="M 134.5 231 L 135.5 233 L 134.5 231 Z " /><path fill="rgb(28,35,11)" stroke="rgb(28,35,11)" stroke-width="1" opacity="0.9921568627450981" d="M 273.5 234 L 275 234.5 L 271.5 237 L 273.5 234 Z " /><path fill="rgb(28,35,11)" stroke="rgb(28,35,11)" stroke-width="1" opacity="0.9921568627450981" d="M 362.5 234 L 360.5 237 L 358.5 238 L 358.5 235 L 360.5 236 L 362.5 234 Z " /><path fill="rgb(28,35,11)" stroke="rgb(28,35,11)" stroke-width="1" opacity="0.9921568627450981" d="M 268.5 236 L 269 237.5 L 267 238.5 L 268.5 236 Z " /><path fill="rgb(28,35,11)" stroke="rgb(28,35,11)" stroke-width="1" opacity="0.9921568627450981" d="M 293.5 236 L 295.5 240 L 298 241.5 L 300 245.5 L 298 244.5 L 292 237.5 L 293.5 236 Z " /><path fill="rgb(28,35,11)" stroke="rgb(28,35,11)" stroke-width="1" opacity="0.9921568627450981" d="M 144.5 238 L 148 240.5 L 146.5 241 L 144.5 238 Z " /><path fill="rgb(28,35,11)" stroke="rgb(28,35,11)" stroke-width="1" opacity="0.9921568627450981" d="M 265.5 239 L 261.5 244 L 265.5 239 Z " /><path fill="rgb(28,35,11)" stroke="rgb(28,35,11)" stroke-width="1" opacity="0.9921568627450981" d="M 354.5 239 L 355.5 241 L 352.5 243 L 354 240.5 L 354.5 239 Z " /><path fill="rgb(28,35,11)" stroke="rgb(28,35,11)" stroke-width="1" opacity="0.9921568627450981" d="M 149.5 241 L 150.5 243 Q 147.7 243.7 149.5 241 Z " /><path fill="rgb(28,35,11)" stroke="rgb(28,35,11)" stroke-width="1" opacity="0.9921568627450981" d="M 152.5 244 L 153.5 246 L 152.5 244 Z " /><path fill="rgb(28,35,11)" stroke="rgb(28,35,11)" stroke-width="1" opacity="0.9921568627450981" d="M 166.5 244 L 169 244.5 L 166.5 245 L 166.5 244 Z " /><path fill="rgb(28,35,11)" stroke="rgb(28,35,11)" stroke-width="1" opacity="0.9921568627450981" d="M 349.5 244 L 347.5 247 L 347 245 L 349.5 244 Z " /><path fill="rgb(28,35,11)" stroke="rgb(28,35,11)" stroke-width="1" opacity="0.9921568627450981" d="M 158.5 245 L 162 245.5 L 158.5 246 L 158.5 245 Z " /><path fill="rgb(28,35,11)" stroke="rgb(28,35,11)" stroke-width="1" opacity="0.9921568627450981" d="M 173.5 246 L 177 250.5 L 175 249.5 L 173.5 246 Z " /><path fill="rgb(28,35,11)" stroke="rgb(28,35,11)" stroke-width="1" opacity="0.9921568627450981" d="M 344.5 248 L 342.5 251 L 313.5 251 L 313 252.5 L 311.5 257 L 311 253.5 L 314.5 249 L 317.5 250 L 320.5 249 L 323.5 250 L 327.5 249 L 329.5 249 L 331.5 250 L 334.5 249 L 337.5 250 L 341.5 249 Q 343 251.5 344.5 248 Z " /><path fill="rgb(28,35,11)" stroke="rgb(28,35,11)" stroke-width="1" opacity="0.9921568627450981" d="M 301.5 250 L 303 253.5 L 302 253.5 L 301.5 250 Z " /><path fill="rgb(28,35,11)" stroke="rgb(28,35,11)" stroke-width="1" opacity="0.9921568627450981" d="M 177.5 252 L 180 256 L 182 256.5 L 180.5 257 L 177.5 252 Z " /><path fill="rgb(28,35,11)" stroke="rgb(28,35,11)" stroke-width="1" opacity="0.9921568627450981" d="M 253.5 257 Q 255.8 257.8 255 261.5 L 253 262.5 L 254 259.5 L 253.5 257 Z " /><path fill="rgb(28,35,11)" stroke="rgb(28,35,11)" stroke-width="1" opacity="0.9921568627450981" d="M 181.5 258 L 188 265.5 L 185 263.5 L 181.5 258 Z " /><path fill="rgb(28,35,11)" stroke="rgb(28,35,11)" stroke-width="1" opacity="0.9921568627450981" d="M 302.5 260 L 302 261.5 L 301.5 263 L 301 261.5 L 302.5 260 Z " /><path fill="rgb(28,35,11)" stroke="rgb(28,35,11)" stroke-width="1" opacity="0.9921568627450981" d="M 310.5 261 L 311 262.5 L 309.5 265 L 309 263.5 L 310.5 261 Z " /><path fill="rgb(28,35,11)" stroke="rgb(28,35,11)" stroke-width="1" opacity="0.9921568627450981" d="M 252.5 264 L 250.5 267 L 248 266.5 L 252.5 264 Z " /><path fill="rgb(28,35,11)" stroke="rgb(28,35,11)" stroke-width="1" opacity="0.9921568627450981" d="M 300.5 264 L 301.5 266 L 303 265.5 Q 303.8 267.8 301.5 267 L 300.5 264 Z " /><path fill="rgb(28,35,11)" stroke="rgb(28,35,11)" stroke-width="1" opacity="0.9921568627450981" d="M 236.5 265 L 239 265.5 L 236.5 266 L 236.5 265 Z " /><path fill="rgb(28,35,11)" stroke="rgb(28,35,11)" stroke-width="1" opacity="0.9921568627450981" d="M 240.5 265 L 244 266.5 L 241.5 267 L 240.5 265 Z " /><path fill="rgb(28,35,11)" stroke="rgb(28,35,11)" stroke-width="1" opacity="0.9921568627450981" d="M 189.5 266 L 193 266.5 L 189.5 267 L 189.5 266 Z " /><path fill="rgb(28,35,11)" stroke="rgb(28,35,11)" stroke-width="1" opacity="0.9921568627450981" d="M 194.5 266 L 197 266.5 L 194.5 267 L 194.5 266 Z " /><path fill="rgb(28,35,11)" stroke="rgb(28,35,11)" stroke-width="1" opacity="0.9921568627450981" d="M 216.5 266 L 217 268 L 215 267.5 L 216.5 266 Z " /><path fill="rgb(28,35,11)" stroke="rgb(28,35,11)" stroke-width="1" opacity="0.9921568627450981" d="M 218.5 266 L 221 266.5 L 218.5 267 L 218.5 266 Z " /><path fill="rgb(146,112,55)" stroke="rgb(146,112,55)" stroke-width="1" opacity="0.9764705882352941" d="M 247 30 Q 252.9 29.1 255 33.5 L 261 42 Q 263.7 40.9 263 43.5 L 271 54 Q 273.7 52.9 273 55.5 L 280 65 Q 282.7 63.9 282 66.5 L 290 77 Q 292.7 75.9 292 78.5 L 334 128.5 L 337 134 Q 339.7 132.9 339 135.5 L 368 169.5 L 376 181 Q 378.7 179.9 378 182.5 L 400 208.5 L 400 212.5 L 345.5 255 L 331 255 L 331 279.5 Q 329.9 286.9 324.5 290 L 302.5 300 Q 296.4 299.4 293.5 302 L 283.5 302 L 280 304.5 L 267 323 L 265 323 L 265 325 Q 262.3 323.9 263 326.5 L 261 330 L 263.5 329 L 281.5 329 L 282.5 330 L 294.5 331 L 302 335 L 305 342.5 L 305 348.5 L 304 349.5 L 304 358.5 L 302 364.5 L 302 369.5 L 297 391.5 L 297 399.5 Q 305.2 407.5 317 411 L 318 417 L 313.5 419 L 281.5 419 L 276.5 418 L 274 415.5 Q 273 407.5 276 403.5 L 276 386.5 L 274 382.5 L 273 368.5 L 275 361 Q 270.5 360.8 268.5 364 L 259.5 366 L 257.5 368 L 253.5 368 L 248 370 L 249 377.5 L 251 381.5 L 252 399.5 L 249 410.5 L 242.5 417 L 231.5 419 L 208.5 415 L 183.5 405 L 181 408.5 Q 186 409.5 185 416.5 L 183.5 418 L 170.5 419 L 164 415.5 Q 161.5 412 163 404.5 L 167 388.5 L 171.5 384 L 181.5 384 L 183.5 386 L 190.5 388 L 203.5 388 Q 205 385.5 210.5 387 L 214.5 388 Q 217.3 386.8 215 385.5 L 208 368.5 L 201 359.5 Q 197.5 353 199 341.5 L 208 324.5 L 208 319.5 L 210 315.5 L 210 310.5 L 212 306.5 L 213 297 L 186.5 296 L 176.5 294 L 171 289.5 L 163 271.5 L 158 253 L 150.5 250 L 100 212.5 Q 99.2 207.2 102 205.5 Q 111.8 197.1 118 186 Q 120.7 187.1 120 184.5 L 138 163.5 L 140 159 Q 142.7 160.1 142 157.5 L 159 136 Q 161.7 137.1 161 134.5 L 206 80.5 L 214 69 Q 216.7 70.1 216 67.5 L 241 38.5 L 245 32 Q 248 33 247 30 Z M 250 35 L 245 41 Q 246 43 243 42 L 177 123 Q 178 125 175 124 L 173 129 L 155 150 Q 156 152 153 151 L 150 157 L 132 178 Q 133 180 130 179 L 112 203 L 108 208 L 393 208 L 341 146 Q 342 143 339 144 L 331 133 L 292 87 Q 293 84 290 85 L 282 75 Q 283 72 280 73 Q 268 55 253 40 Q 254 37 251 38 L 250 35 Z M 110 213 L 112 216 L 154 246 L 163 246 L 164 245 L 173 246 L 193 272 L 201 270 L 207 270 L 213 267 L 215 268 L 228 265 Q 236 264 241 267 L 251 267 L 255 262 Q 256 251 261 245 Q 266 238 275 235 Q 285 234 292 237 Q 299 242 302 253 L 302 261 L 297 272 L 308 272 L 309 271 L 309 267 L 311 263 L 313 251 L 343 251 L 390 215 L 391 213 L 316 213 L 315 214 L 312 213 L 215 213 L 214 214 L 210 213 L 177 213 L 176 214 L 173 213 L 110 213 Z M 278 239 L 269 243 L 261 254 L 257 268 L 253 271 L 249 272 L 238 270 L 226 270 L 199 276 L 188 276 L 173 254 Q 171 248 162 250 L 165 264 L 175 288 L 180 290 L 185 290 L 191 292 L 223 292 Q 225 293 223 295 L 223 296 L 218 296 L 212 326 L 203 345 L 204 355 L 208 361 Q 207 363 210 362 Q 215 370 218 382 L 227 396 L 227 398 L 224 398 L 218 392 L 187 392 L 179 388 L 174 388 L 171 391 Q 172 395 169 397 Q 170 403 167 405 L 167 412 L 171 414 L 179 414 L 175 409 L 177 405 L 182 401 L 188 401 L 205 409 L 227 414 L 241 413 Q 245 410 247 404 L 247 386 Q 244 382 245 376 L 235 349 L 238 347 L 241 352 L 243 360 L 247 366 L 267 360 L 283 353 L 277 370 L 281 390 L 281 400 L 279 411 Q 276 412 281 414 L 311 414 L 296 405 L 292 401 L 292 393 L 296 377 L 296 371 L 298 366 L 298 360 L 300 355 L 300 341 L 293 335 L 278 334 L 277 333 L 262 334 L 250 336 Q 249 332 253 331 Q 252 328 255 329 L 255 328 L 272 310 L 277 301 L 280 298 L 291 298 Q 293 295 300 296 L 316 290 L 322 286 L 325 283 L 327 272 L 327 255 L 318 255 L 316 257 L 312 276 L 295 276 L 292 279 Q 293 281 290 280 L 290 282 L 288 282 L 288 284 L 286 284 L 286 286 L 277 289 L 269 288 L 267 286 Q 264 287 265 284 L 263 284 L 260 277 Q 259 272 263 271 L 265 274 L 265 279 L 267 282 L 272 284 L 280 284 L 286 280 L 294 269 L 298 259 L 298 254 L 296 248 Q 292 238 278 239 Z " /><path fill="rgb(9,44,32)" stroke="rgb(9,44,32)" stroke-width="1" opacity="0.996078431372549" d="M 248 38 L 251 38 Q 249.9 40.7 252.5 40 L 256.5 45 Q 257.8 42.8 259 45.5 L 258 48 L 262 49.5 Q 259.5 51 263 52.5 L 266.5 57 L 268 56.5 L 268 58.5 Q 267.2 61.1 270.5 60 L 273 64.5 L 273.5 66 L 275 65.5 L 274 66.5 L 278 70.5 L 280.5 74 L 282 73.5 L 282 75.5 L 284.5 79 L 286 78.5 L 285 81 Q 288.8 80.3 290 83.5 Q 287.8 84.8 290.5 86 L 292 85.5 L 295 93 Q 297.7 91.9 297 94.5 L 299 94.5 L 298 96.5 L 301.5 101 L 304.5 103 L 306 102.5 Q 303.5 104 307 105.5 L 309 108.5 L 311 108.5 L 310 109.5 L 313 112.5 L 314.5 115 L 316 114.5 L 316 116.5 L 318.5 120 L 320 119.5 Q 317.5 121 321 122.5 L 326.5 130 L 328 129.5 L 328 131.5 L 333 139 Q 335.7 137.9 335 140.5 L 339.5 145 L 341 144.5 L 341 146.5 L 342.5 149 Q 343.8 146.8 345 149.5 L 345 151.5 L 348.5 156 L 350 155.5 L 350 157.5 L 352.5 161 L 354 160.5 Q 351.5 162 355 163.5 L 355.5 165 L 357 164.5 L 357.5 167 L 359 166.5 L 359 168.5 L 362.5 173 L 364 172.5 L 364 174.5 L 365.5 177 L 367 176.5 L 367 178.5 L 372.5 185 L 374 184.5 L 373 186.5 Q 375 190.2 377 188.5 L 377 190.5 L 380 197 Q 383.8 195.5 383 198.5 L 386 199.5 Q 383.5 201 387 202.5 Q 386.3 204.8 388.5 204 Q 391.5 205.5 388.5 207 L 128.5 207 L 126.5 208 L 125.5 207 L 109 206.5 L 112 204.5 L 113 202.5 L 112.5 201 Q 114.3 203.7 116 199.5 L 128 184.5 Q 125.8 183.3 128.5 182 L 130.5 183 L 134 177.5 L 133.5 176 L 137 173.5 L 136.5 172 Q 137.7 174.3 139 171.5 L 141.5 168 Q 143.8 168.8 143 166.5 L 151 156.5 L 150.5 155 L 151.5 156 L 155 152.5 L 160 145.5 Q 157.8 144.3 160.5 143 Q 162.3 145.8 164 141.5 L 163 139.5 L 166 138.5 L 169 134.5 Q 166.8 133.3 169.5 132 Q 171.2 134.8 173 130.5 L 179 122.5 L 178.5 121 Q 180.3 123.7 182 119.5 L 187 112.5 L 186.5 111 L 187.5 112 L 191 108.5 L 190 106.5 Q 192.5 108.3 195 103.5 L 194 101.5 Q 195.3 98.8 196.5 101 L 200 97.5 L 199 95.5 Q 200.3 92.8 201.5 95 L 203 94.5 L 202 93.5 Q 206.2 91.3 204.5 89 L 205.5 90 L 208.5 87 L 210 86.5 Q 206.3 84.8 209.5 83 L 209.5 85 L 214 81.5 L 216 77.5 L 215.5 76 Q 217.3 78.7 219 74.5 L 218 72.5 Q 219.3 69.8 220.5 72 L 224 68.5 L 225 66.5 Q 222.7 65.3 225.5 64 Q 227.3 66.8 229 62.5 L 228 60.5 L 230 59.5 L 229.5 61 Q 231.8 61.8 231 59.5 L 235 54.5 L 234.5 53 Q 236.3 55.7 238 51.5 L 239 49.5 L 238.5 48 L 239.5 49 L 243 45.5 L 244 43.5 L 243.5 42 Q 247.5 42.5 248 39.5 L 248 38 Z " /><path fill="rgb(9,44,32)" stroke="rgb(9,44,32)" stroke-width="1" opacity="0.996078431372549" d="M 329.5 131 L 330.5 133 L 329.5 131 Z " /><path fill="rgb(9,44,32)" stroke="rgb(9,44,32)" stroke-width="1" opacity="0.996078431372549" d="M 152.5 213 L 173 213.5 L 152.5 214 L 152.5 213 Z " /><path fill="rgb(9,44,32)" stroke="rgb(9,44,32)" stroke-width="1" opacity="0.996078431372549" d="M 176.5 213 L 210 213.5 L 176.5 214 L 176.5 213 Z " /><path fill="rgb(9,44,32)" stroke="rgb(9,44,32)" stroke-width="1" opacity="0.996078431372549" d="M 214.5 213 L 312 213.5 L 214.5 214 L 214.5 213 Z " /><path fill="rgb(9,44,32)" stroke="rgb(9,44,32)" stroke-width="1" opacity="0.996078431372549" d="M 315.5 213 L 354 213.5 L 315.5 214 L 315.5 213 Z " /><path fill="rgb(9,44,32)" stroke="rgb(9,44,32)" stroke-width="1" opacity="0.996078431372549" d="M 358.5 233 L 357.5 235 L 358.5 233 Z " /><path fill="rgb(9,44,32)" stroke="rgb(9,44,32)" stroke-width="1" opacity="0.996078431372549" d="M 197.5 266 L 205 266.5 L 197.5 267 L 197.5 266 Z " /><path fill="rgb(215,197,169)" stroke="rgb(215,197,169)" stroke-width="1" opacity="0.1843137254901961" d="M 248.5 29 L 251.5 29 L 256 33.5 L 258 36.5 L 262.5 42 Q 260.3 42.8 261 40.5 L 252.5 31 L 248.5 30 L 248.5 29 Z " /><path fill="rgb(215,197,169)" stroke="rgb(215,197,169)" stroke-width="1" opacity="0.1843137254901961" d="M 246.5 30 L 247 32 Q 244.3 30.9 245 33.5 L 235.5 44 L 238 40.5 L 240 37.5 L 246.5 30 Z " /><path fill="rgb(215,197,169)" stroke="rgb(215,197,169)" stroke-width="1" opacity="0.1843137254901961" d="M 263.5 43 L 264.5 45 L 263.5 43 Z " /><path fill="rgb(215,197,169)" stroke="rgb(215,197,169)" stroke-width="1" opacity="0.1843137254901961" d="M 233 45 L 235 45.5 L 231 48.5 L 233 45 Z " /><path fill="rgb(215,197,169)" stroke="rgb(215,197,169)" stroke-width="1" opacity="0.1843137254901961" d="M 266.5 46 L 267 48 Q 269.7 46.9 269 49.5 L 270.5 52 L 266 47.5 L 266.5 46 Z " /><path fill="rgb(215,197,169)" stroke="rgb(215,197,169)" stroke-width="1" opacity="0.1843137254901961" d="M 229.5 50 L 230 51.5 L 225 55.5 L 227 52 Q 229.8 53 229.5 50 Z " /><path fill="rgb(215,197,169)" stroke="rgb(215,197,169)" stroke-width="1" opacity="0.1843137254901961" d="M 273.5 55 L 281 64.5 L 280 64.5 L 273.5 55 Z " /><path fill="rgb(215,197,169)" stroke="rgb(215,197,169)" stroke-width="1" opacity="0.1843137254901961" d="M 223.5 57 L 224 58.5 L 220 61.5 L 223.5 57 Z " /><path fill="rgb(215,197,169)" stroke="rgb(215,197,169)" stroke-width="1" opacity="0.1843137254901961" d="M 218 63 L 220 63.5 L 215.5 69 L 215 67.5 L 218 63 Z " /><path fill="rgb(215,197,169)" stroke="rgb(215,197,169)" stroke-width="1" opacity="0.1843137254901961" d="M 282.5 65 L 292 76.5 L 290 77 L 282 66.5 L 282.5 65 Z " /><path fill="rgb(215,197,169)" stroke="rgb(215,197,169)" stroke-width="1" opacity="0.1843137254901961" d="M 213.5 70 L 210 74.5 L 192.5 96 L 195 92.5 L 205 80.5 L 207 76 Q 209.7 77.1 209 74.5 L 213.5 70 Z " /><path fill="rgb(215,197,169)" stroke="rgb(215,197,169)" stroke-width="1" opacity="0.1843137254901961" d="M 292.5 78 L 294.5 81 L 292.5 78 Z " /><path fill="rgb(215,197,169)" stroke="rgb(215,197,169)" stroke-width="1" opacity="0.1843137254901961" d="M 296.5 82 L 297 84 Q 299.7 82.9 299 85.5 L 306 93.5 L 300 88.5 L 296 83.5 L 296.5 82 Z " /><path fill="rgb(215,197,169)" stroke="rgb(215,197,169)" stroke-width="1" opacity="0.1843137254901961" d="M 306.5 95 L 309.5 99 L 306.5 95 Z " /><path fill="rgb(215,197,169)" stroke="rgb(215,197,169)" stroke-width="1" opacity="0.1843137254901961" d="M 190.5 97 L 191 98.5 L 188 100.5 L 190.5 97 Z " /><path fill="rgb(215,197,169)" stroke="rgb(215,197,169)" stroke-width="1" opacity="0.1843137254901961" d="M 310.5 100 Q 312.8 99.3 312 101.5 L 318 108.5 L 315 106.5 L 310.5 100 Z " /><path fill="rgb(215,197,169)" stroke="rgb(215,197,169)" stroke-width="1" opacity="0.1843137254901961" d="M 184 104 L 186 104.5 L 177.5 114 L 182 108.5 L 184 104 Z " /><path fill="rgb(215,197,169)" stroke="rgb(215,197,169)" stroke-width="1" opacity="0.1843137254901961" d="M 319.5 110 L 329 121.5 L 325 118.5 L 319 111.5 L 319.5 110 Z " /><path fill="rgb(215,197,169)" stroke="rgb(215,197,169)" stroke-width="1" opacity="0.1843137254901961" d="M 175 115 L 177 115.5 L 164.5 130 L 167 126.5 L 175 115 Z " /><path fill="rgb(215,197,169)" stroke="rgb(215,197,169)" stroke-width="1" opacity="0.1843137254901961" d="M 329.5 123 Q 331.8 122.3 331 124.5 L 333.5 128 L 329.5 123 Z " /><path fill="rgb(215,197,169)" stroke="rgb(215,197,169)" stroke-width="1" opacity="0.1843137254901961" d="M 334.5 129 Q 336.8 128.3 336 130.5 L 344 141 Q 346.7 139.9 346 142.5 L 346.5 144 L 339 134 Q 336.3 135.1 337 132.5 L 334.5 129 Z " /><path fill="rgb(215,197,169)" stroke="rgb(215,197,169)" stroke-width="1" opacity="0.1843137254901961" d="M 162 131 L 164 131.5 L 160.5 136 L 160 134.5 L 162 131 Z " /><path fill="rgb(215,197,169)" stroke="rgb(215,197,169)" stroke-width="1" opacity="0.1843137254901961" d="M 158.5 136 L 159 137.5 L 151.5 146 L 154 142.5 L 158.5 136 Z " /><path fill="rgb(215,197,169)" stroke="rgb(215,197,169)" stroke-width="1" opacity="0.1843137254901961" d="M 347.5 145 L 349 145 L 349 147 Q 351.7 145.9 351 148.5 L 352.5 151 L 347.5 145 Z " /><path fill="rgb(215,197,169)" stroke="rgb(215,197,169)" stroke-width="1" opacity="0.1843137254901961" d="M 149 147 L 151 147.5 L 145 152.5 L 149 147 Z " /><path fill="rgb(215,197,169)" stroke="rgb(215,197,169)" stroke-width="1" opacity="0.1843137254901961" d="M 353.5 152 L 377 180.5 L 376 180.5 L 353.5 152 Z " /><path fill="rgb(215,197,169)" stroke="rgb(215,197,169)" stroke-width="1" opacity="0.1843137254901961" d="M 143 154 L 145 154.5 L 142 159 Q 139.3 157.9 140 160.5 L 123.5 180 L 126 176.5 L 135 164 Q 137.7 165.1 137 162.5 L 143 154 Z " /><path fill="rgb(215,197,169)" stroke="rgb(215,197,169)" stroke-width="1" opacity="0.1843137254901961" d="M 121.5 181 L 122 182.5 L 119.5 186 L 119 184.5 L 121.5 181 Z " /><path fill="rgb(215,197,169)" stroke="rgb(215,197,169)" stroke-width="1" opacity="0.1843137254901961" d="M 378.5 181 L 381 184.5 L 378 182.5 L 378.5 181 Z " /><path fill="rgb(215,197,169)" stroke="rgb(215,197,169)" stroke-width="1" opacity="0.1843137254901961" d="M 117.5 186 L 118 187.5 L 110.5 196 L 112 193.5 L 115 188 Q 117.8 189 117.5 186 Z " /><path fill="rgb(215,197,169)" stroke="rgb(215,197,169)" stroke-width="1" opacity="0.1843137254901961" d="M 382.5 186 L 383 188 Q 385.7 186.9 385 189.5 L 390 195.5 L 387 193.5 L 382 187.5 L 382.5 186 Z " /><path fill="rgb(215,197,169)" stroke="rgb(215,197,169)" stroke-width="1" opacity="0.1843137254901961" d="M 108 197 L 110 197.5 L 102 204.5 L 106 199 Q 109 200 108 197 Z " /><path fill="rgb(215,197,169)" stroke="rgb(215,197,169)" stroke-width="1" opacity="0.1843137254901961" d="M 392.5 199 Q 394.8 198.3 394 200.5 L 400 207.5 L 397 205.5 L 392.5 199 Z " /><path fill="rgb(215,197,169)" stroke="rgb(215,197,169)" stroke-width="1" opacity="0.1843137254901961" d="M 101.5 206 L 100.5 208 L 101.5 206 Z " /><path fill="rgb(215,197,169)" stroke="rgb(215,197,169)" stroke-width="1" opacity="0.1843137254901961" d="M 99.5 209 Q 99.4 214.6 103.5 216 L 117 225.5 L 114.5 224 L 100 215 L 99.5 209 Z " /><path fill="rgb(215,197,169)" stroke="rgb(215,197,169)" stroke-width="1" opacity="0.1843137254901961" d="M 400.5 209 L 401 211.5 L 400 211.5 L 400.5 209 Z " /><path fill="rgb(215,197,169)" stroke="rgb(215,197,169)" stroke-width="1" opacity="0.1843137254901961" d="M 399.5 213 L 396.5 217 L 389.5 222 L 392.5 218 L 399.5 213 Z " /><path fill="rgb(215,197,169)" stroke="rgb(215,197,169)" stroke-width="1" opacity="0.1843137254901961" d="M 387.5 222 L 386.5 224 L 387.5 222 Z " /><path fill="rgb(215,197,169)" stroke="rgb(215,197,169)" stroke-width="1" opacity="0.1843137254901961" d="M 384.5 224 L 385 226 L 381.5 228 L 384.5 224 Z " /><path fill="rgb(215,197,169)" stroke="rgb(215,197,169)" stroke-width="1" opacity="0.1843137254901961" d="M 118.5 226 L 119.5 228 L 118.5 226 Z " /><path fill="rgb(215,197,169)" stroke="rgb(215,197,169)" stroke-width="1" opacity="0.1843137254901961" d="M 121.5 228 L 124.5 232 L 121 230 L 121.5 228 Z " /><path fill="rgb(215,197,169)" stroke="rgb(215,197,169)" stroke-width="1" opacity="0.1843137254901961" d="M 379.5 228 L 378.5 230 L 379.5 228 Z " /><path fill="rgb(215,197,169)" stroke="rgb(215,197,169)" stroke-width="1" opacity="0.1843137254901961" d="M 376.5 230 L 377 232 L 369.5 237 L 371.5 234 L 376.5 230 Z " /><path fill="rgb(215,197,169)" stroke="rgb(215,197,169)" stroke-width="1" opacity="0.1843137254901961" d="M 126.5 232 L 132 236.5 L 130.5 236 L 126.5 232 Z " /><path fill="rgb(215,197,169)" stroke="rgb(215,197,169)" stroke-width="1" opacity="0.1843137254901961" d="M 133.5 237 L 134.5 239 L 133.5 237 Z " /><path fill="rgb(215,197,169)" stroke="rgb(215,197,169)" stroke-width="1" opacity="0.1843137254901961" d="M 367.5 237 L 364.5 241 L 367.5 237 Z " /><path fill="rgb(215,197,169)" stroke="rgb(215,197,169)" stroke-width="1" opacity="0.1843137254901961" d="M 136.5 239 L 150 249.5 L 148.5 249 Q 139.9 245.1 136.5 239 Z " /><path fill="rgb(215,197,169)" stroke="rgb(215,197,169)" stroke-width="1" opacity="0.1843137254901961" d="M 362.5 241 L 360.5 244 L 357.5 246 L 352.5 250 L 354.5 247 L 362.5 241 Z " /><path fill="rgb(215,197,169)" stroke="rgb(215,197,169)" stroke-width="1" opacity="0.1843137254901961" d="M 151.5 250 L 158 253.5 L 156.5 254 L 152.5 252 L 151.5 250 Z " /><path fill="rgb(215,197,169)" stroke="rgb(215,197,169)" stroke-width="1" opacity="0.1843137254901961" d="M 349.5 251 L 351 251.5 L 345.5 256 L 332 256 L 331.5 273 L 331 255 L 345.5 255 L 349.5 251 Z " /><path fill="rgb(215,197,169)" stroke="rgb(215,197,169)" stroke-width="1" opacity="0.1843137254901961" d="M 158.5 255 L 160 260.5 L 159 260.5 L 158.5 255 Z " /><path fill="rgb(215,197,169)" stroke="rgb(215,197,169)" stroke-width="1" opacity="0.1843137254901961" d="M 160.5 262 L 161 264.5 L 160 264.5 L 160.5 262 Z " /><path fill="rgb(215,197,169)" stroke="rgb(215,197,169)" stroke-width="1" opacity="0.1843137254901961" d="M 304.5 266 L 308 266.5 L 304.5 267 L 304.5 266 Z " /><path fill="rgb(215,197,169)" stroke="rgb(215,197,169)" stroke-width="1" opacity="0.1843137254901961" d="M 162.5 268 L 163 270.5 L 162 270.5 L 162.5 268 Z " /><path fill="rgb(215,197,169)" stroke="rgb(215,197,169)" stroke-width="1" opacity="0.1843137254901961" d="M 189.5 268 L 192.5 270 L 195 271.5 L 192.5 272 L 189.5 268 Z " /><path fill="rgb(215,197,169)" stroke="rgb(215,197,169)" stroke-width="1" opacity="0.1843137254901961" d="M 207.5 268 L 210 268.5 L 204.5 270 L 204.5 269 L 207.5 268 Z " /><path fill="rgb(215,197,169)" stroke="rgb(215,197,169)" stroke-width="1" opacity="0.1843137254901961" d="M 298.5 268 L 299 270.5 L 297 271.5 L 298.5 268 Z " /><path fill="rgb(215,197,169)" stroke="rgb(215,197,169)" stroke-width="1" opacity="0.1843137254901961" d="M 308.5 269 L 309 270.5 Q 307.5 273.5 301.5 272 L 301.5 271 Q 307.3 272.3 308.5 269 Z " /><path fill="rgb(215,197,169)" stroke="rgb(215,197,169)" stroke-width="1" opacity="0.1843137254901961" d="M 196.5 270 L 200 270.5 L 196.5 271 L 196.5 270 Z " /><path fill="rgb(215,197,169)" stroke="rgb(215,197,169)" stroke-width="1" opacity="0.1843137254901961" d="M 164.5 274 L 166 277.5 L 164 276.5 L 164.5 274 Z " /><path fill="rgb(215,197,169)" stroke="rgb(215,197,169)" stroke-width="1" opacity="0.1843137254901961" d="M 166.5 279 L 169 285.5 L 168 285.5 Q 165 283 166.5 279 Z " /><path fill="rgb(215,197,169)" stroke="rgb(215,197,169)" stroke-width="1" opacity="0.1843137254901961" d="M 330.5 280 L 331 282.5 Q 329.6 288.6 324.5 291 L 323 290.5 L 329 285.5 L 330.5 280 Z " /><path fill="rgb(215,197,169)" stroke="rgb(215,197,169)" stroke-width="1" opacity="0.1843137254901961" d="M 169.5 287 L 173.5 292 L 176 293.5 L 174.5 293 L 169 288.5 L 169.5 287 Z " /><path fill="rgb(215,197,169)" stroke="rgb(215,197,169)" stroke-width="1" opacity="0.1843137254901961" d="M 321.5 291 L 320.5 293 L 319 292.5 L 321.5 291 Z " /><path fill="rgb(215,197,169)" stroke="rgb(215,197,169)" stroke-width="1" opacity="0.1843137254901961" d="M 317.5 293 L 316.5 295 L 315 294.5 L 317.5 293 Z " /><path fill="rgb(215,197,169)" stroke="rgb(215,197,169)" stroke-width="1" opacity="0.1843137254901961" d="M 177.5 294 L 181 294.5 L 177.5 295 L 177.5 294 Z " /><path fill="rgb(215,197,169)" stroke="rgb(215,197,169)" stroke-width="1" opacity="0.1843137254901961" d="M 313.5 295 L 312.5 297 L 306.5 299 L 306.5 298 L 313.5 295 Z " /><path fill="rgb(215,197,169)" stroke="rgb(215,197,169)" stroke-width="1" opacity="0.1843137254901961" d="M 187.5 296 L 195 296.5 L 187.5 297 L 187.5 296 Z " /><path fill="rgb(215,197,169)" stroke="rgb(215,197,169)" stroke-width="1" opacity="0.1843137254901961" d="M 212.5 297 L 213 299.5 L 212 299.5 L 212.5 297 Z " /><path fill="rgb(215,197,169)" stroke="rgb(215,197,169)" stroke-width="1" opacity="0.1843137254901961" d="M 298.5 300 L 302 300.5 L 298.5 301 L 298.5 300 Z " /><path fill="rgb(215,197,169)" stroke="rgb(215,197,169)" stroke-width="1" opacity="0.1843137254901961" d="M 294.5 301 L 297 301.5 L 294.5 302 L 294.5 301 Z " /><path fill="rgb(215,197,169)" stroke="rgb(215,197,169)" stroke-width="1" opacity="0.1843137254901961" d="M 211.5 302 L 212 306.5 L 210.5 310 L 210 306.5 L 211.5 302 Z " /><path fill="rgb(215,197,169)" stroke="rgb(215,197,169)" stroke-width="1" opacity="0.1843137254901961" d="M 283.5 302 L 293 302.5 L 283.5 303 L 283.5 302 Z " /><path fill="rgb(215,197,169)" stroke="rgb(215,197,169)" stroke-width="1" opacity="0.1843137254901961" d="M 281.5 303 L 282 304.5 L 279 306.5 L 281.5 303 Z " /><path fill="rgb(215,197,169)" stroke="rgb(215,197,169)" stroke-width="1" opacity="0.1843137254901961" d="M 277.5 309 L 277 310.5 L 276.5 312 L 276 310.5 L 277.5 309 Z " /><path fill="rgb(215,197,169)" stroke="rgb(215,197,169)" stroke-width="1" opacity="0.1843137254901961" d="M 209.5 311 L 210 315.5 L 208.5 319 L 208 316.5 L 209.5 311 Z " /><path fill="rgb(215,197,169)" stroke="rgb(215,197,169)" stroke-width="1" opacity="0.1843137254901961" d="M 274.5 313 L 273 315.5 L 267.5 322 L 272 316.5 L 274.5 313 Z " /><path fill="rgb(215,197,169)" stroke="rgb(215,197,169)" stroke-width="1" opacity="0.1843137254901961" d="M 207.5 321 L 208 324.5 L 205.5 329 L 205 327.5 L 207.5 321 Z " /><path fill="rgb(215,197,169)" stroke="rgb(215,197,169)" stroke-width="1" opacity="0.1843137254901961" d="M 263 325 L 265 325.5 Q 260.8 327.8 262.5 330 Q 260.3 330.8 261 328.5 L 263 325 Z " /><path fill="rgb(215,197,169)" stroke="rgb(215,197,169)" stroke-width="1" opacity="0.1843137254901961" d="M 267.5 328 L 279 328.5 L 267.5 329 L 267.5 328 Z " /><path fill="rgb(215,197,169)" stroke="rgb(215,197,169)" stroke-width="1" opacity="0.1843137254901961" d="M 282.5 329 L 287 329.5 L 282.5 330 L 282.5 329 Z " /><path fill="rgb(215,197,169)" stroke="rgb(215,197,169)" stroke-width="1" opacity="0.1843137254901961" d="M 203 330 L 205 330.5 L 199.5 341 L 199 338.5 L 203 332.5 L 203 330 Z " /><path fill="rgb(215,197,169)" stroke="rgb(215,197,169)" stroke-width="1" opacity="0.1843137254901961" d="M 289.5 330 L 294 330.5 L 289.5 331 L 289.5 330 Z " /><path fill="rgb(215,197,169)" stroke="rgb(215,197,169)" stroke-width="1" opacity="0.1843137254901961" d="M 297.5 332 L 303 335.5 Q 305.6 336.9 305 341.5 L 304 341.5 L 304 338.5 L 302 335 Q 296.9 334.5 297.5 332 Z " /><path fill="rgb(215,197,169)" stroke="rgb(215,197,169)" stroke-width="1" opacity="0.1843137254901961" d="M 198.5 342 L 199 351.5 L 198 351.5 L 198.5 342 Z " /><path fill="rgb(215,197,169)" stroke="rgb(215,197,169)" stroke-width="1" opacity="0.1843137254901961" d="M 304.5 349 L 305 357.5 L 304 357.5 L 304.5 349 Z " /><path fill="rgb(215,197,169)" stroke="rgb(215,197,169)" stroke-width="1" opacity="0.1843137254901961" d="M 199.5 354 L 201 358.5 L 200 358.5 L 199.5 354 Z " /><path fill="rgb(215,197,169)" stroke="rgb(215,197,169)" stroke-width="1" opacity="0.1843137254901961" d="M 303.5 359 L 304 361.5 L 303 361.5 L 303.5 359 Z " /><path fill="rgb(215,197,169)" stroke="rgb(215,197,169)" stroke-width="1" opacity="0.1843137254901961" d="M 201.5 360 Q 208.9 367.1 212 378.5 L 211 378.5 L 205 365 Q 202.3 366.1 203 363.5 Q 200 362.5 201.5 360 Z " /><path fill="rgb(215,197,169)" stroke="rgb(215,197,169)" stroke-width="1" opacity="0.1843137254901961" d="M 273.5 361 Q 275.8 360.3 275 362.5 L 272.5 363 L 269.5 364 L 270.5 362 L 273.5 361 Z " /><path fill="rgb(215,197,169)" stroke="rgb(215,197,169)" stroke-width="1" opacity="0.1843137254901961" d="M 265.5 364 L 267 364.5 L 263.5 366 L 263.5 365 L 265.5 364 Z " /><path fill="rgb(215,197,169)" stroke="rgb(215,197,169)" stroke-width="1" opacity="0.1843137254901961" d="M 302.5 364 L 303 368.5 L 302 368.5 L 302.5 364 Z " /><path fill="rgb(215,197,169)" stroke="rgb(215,197,169)" stroke-width="1" opacity="0.1843137254901961" d="M 273.5 365 L 274 367.5 L 272.5 375 L 272 368.5 L 273.5 365 Z " /><path fill="rgb(215,197,169)" stroke="rgb(215,197,169)" stroke-width="1" opacity="0.1843137254901961" d="M 259.5 366 L 262 366.5 L 258.5 368 L 259.5 366 Z " /><path fill="rgb(215,197,169)" stroke="rgb(215,197,169)" stroke-width="1" opacity="0.1843137254901961" d="M 253.5 368 L 256 368.5 L 251.5 370 L 251.5 369 L 253.5 368 Z " /><path fill="rgb(215,197,169)" stroke="rgb(215,197,169)" stroke-width="1" opacity="0.1843137254901961" d="M 248.5 370 L 249 372.5 L 248 372.5 L 248.5 370 Z " /><path fill="rgb(215,197,169)" stroke="rgb(215,197,169)" stroke-width="1" opacity="0.1843137254901961" d="M 301.5 370 L 302 372.5 L 301 372.5 L 301.5 370 Z " /><path fill="rgb(215,197,169)" stroke="rgb(215,197,169)" stroke-width="1" opacity="0.1843137254901961" d="M 249.5 374 L 250 377.5 L 249 377.5 L 249.5 374 Z " /><path fill="rgb(215,197,169)" stroke="rgb(215,197,169)" stroke-width="1" opacity="0.1843137254901961" d="M 300.5 375 L 301 379.5 L 299.5 383 L 299 380.5 L 300.5 375 Z " /><path fill="rgb(215,197,169)" stroke="rgb(215,197,169)" stroke-width="1" opacity="0.1843137254901961" d="M 273.5 376 L 274 378.5 L 273 378.5 L 273.5 376 Z " /><path fill="rgb(215,197,169)" stroke="rgb(215,197,169)" stroke-width="1" opacity="0.1843137254901961" d="M 212.5 380 L 216 386.5 Q 215.3 388.8 211.5 388 L 211.5 387 L 215 386.5 L 212 381.5 L 212.5 380 Z " /><path fill="rgb(215,197,169)" stroke="rgb(215,197,169)" stroke-width="1" opacity="0.1843137254901961" d="M 251.5 382 L 252 389.5 L 251 389.5 L 251.5 382 Z " /><path fill="rgb(215,197,169)" stroke="rgb(215,197,169)" stroke-width="1" opacity="0.1843137254901961" d="M 171.5 383 L 181 383.5 L 171.5 384 L 167 388.5 L 166.5 391 L 166 388.5 L 169.5 384 L 171.5 383 Z " /><path fill="rgb(215,197,169)" stroke="rgb(215,197,169)" stroke-width="1" opacity="0.1843137254901961" d="M 274.5 383 L 276 387.5 L 275 387.5 L 274.5 383 Z " /><path fill="rgb(215,197,169)" stroke="rgb(215,197,169)" stroke-width="1" opacity="0.1843137254901961" d="M 182.5 384 L 185 385.5 L 183.5 386 L 182.5 384 Z " /><path fill="rgb(215,197,169)" stroke="rgb(215,197,169)" stroke-width="1" opacity="0.1843137254901961" d="M 298.5 385 L 299 389.5 L 298 389.5 L 298.5 385 Z " /><path fill="rgb(215,197,169)" stroke="rgb(215,197,169)" stroke-width="1" opacity="0.1843137254901961" d="M 190.5 387 L 204 387.5 L 190.5 388 L 190.5 387 Z " /><path fill="rgb(215,197,169)" stroke="rgb(215,197,169)" stroke-width="1" opacity="0.1843137254901961" d="M 164.5 396 L 165 399.5 L 164 399.5 L 164.5 396 Z " /><path fill="rgb(215,197,169)" stroke="rgb(215,197,169)" stroke-width="1" opacity="0.1843137254901961" d="M 297.5 399 L 301 401 L 300.5 403 L 297.5 399 Z " /><path fill="rgb(215,197,169)" stroke="rgb(215,197,169)" stroke-width="1" opacity="0.1843137254901961" d="M 251.5 400 L 252 404.5 L 251 404.5 L 251.5 400 Z " /><path fill="rgb(215,197,169)" stroke="rgb(215,197,169)" stroke-width="1" opacity="0.1843137254901961" d="M 163.5 401 L 164 403.5 L 163 404.5 L 163 413.5 L 165.5 417 L 167 417.5 L 165.5 418 Q 160 415 162 404.5 L 163.5 401 Z " /><path fill="rgb(215,197,169)" stroke="rgb(215,197,169)" stroke-width="1" opacity="0.1843137254901961" d="M 304.5 404 L 305.5 406 L 304.5 404 Z " /><path fill="rgb(215,197,169)" stroke="rgb(215,197,169)" stroke-width="1" opacity="0.1843137254901961" d="M 183.5 405 L 188 406.5 L 186.5 407 L 183.5 406 L 182 408.5 Q 187 409.5 186 416.5 L 184 417.5 L 185 412.5 L 181 407.5 L 183.5 405 Z " /><path fill="rgb(215,197,169)" stroke="rgb(215,197,169)" stroke-width="1" opacity="0.1843137254901961" d="M 274.5 405 L 275 407.5 L 274 407.5 L 274.5 405 Z " /><path fill="rgb(215,197,169)" stroke="rgb(215,197,169)" stroke-width="1" opacity="0.1843137254901961" d="M 307.5 406 L 310 407.5 L 308.5 407 L 307.5 406 Z " /><path fill="rgb(215,197,169)" stroke="rgb(215,197,169)" stroke-width="1" opacity="0.1843137254901961" d="M 189.5 407 L 193 408.5 L 191.5 409 L 189.5 407 Z " /><path fill="rgb(215,197,169)" stroke="rgb(215,197,169)" stroke-width="1" opacity="0.1843137254901961" d="M 311.5 408 L 314 409.5 L 312.5 409 L 311.5 408 Z " /><path fill="rgb(215,197,169)" stroke="rgb(215,197,169)" stroke-width="1" opacity="0.1843137254901961" d="M 194.5 409 L 202 412.5 L 200.5 413 L 194.5 410 L 194.5 409 Z " /><path fill="rgb(215,197,169)" stroke="rgb(215,197,169)" stroke-width="1" opacity="0.1843137254901961" d="M 315.5 410 L 318 411.5 L 319 415.5 L 318 415.5 L 317 411 L 315.5 410 Z " /><path fill="rgb(215,197,169)" stroke="rgb(215,197,169)" stroke-width="1" opacity="0.1843137254901961" d="M 248.5 411 L 248 412.5 L 245.5 416 L 240.5 418 L 240.5 417 L 242.5 417 L 248.5 411 Z " /><path fill="rgb(215,197,169)" stroke="rgb(215,197,169)" stroke-width="1" opacity="0.1843137254901961" d="M 203.5 413 L 208 414.5 L 206.5 415 L 203.5 414 L 203.5 413 Z " /><path fill="rgb(215,197,169)" stroke="rgb(215,197,169)" stroke-width="1" opacity="0.1843137254901961" d="M 209.5 415 L 216 416.5 L 213.5 417 L 209.5 416 L 209.5 415 Z " /><path fill="rgb(215,197,169)" stroke="rgb(215,197,169)" stroke-width="1" opacity="0.1843137254901961" d="M 274.5 416 L 275.5 418 Q 272.7 418.7 274.5 416 Z " /><path fill="rgb(215,197,169)" stroke="rgb(215,197,169)" stroke-width="1" opacity="0.1843137254901961" d="M 217.5 417 L 222 417.5 L 217.5 418 L 217.5 417 Z " /><path fill="rgb(215,197,169)" stroke="rgb(215,197,169)" stroke-width="1" opacity="0.1843137254901961" d="M 316.5 417 L 318 417.5 L 314.5 419 L 314.5 418 L 316.5 417 Z " /><path fill="rgb(215,197,169)" stroke="rgb(215,197,169)" stroke-width="1" opacity="0.1843137254901961" d="M 178.5 418 L 183 418.5 L 178.5 419 L 178.5 418 Z " /><path fill="rgb(215,197,169)" stroke="rgb(215,197,169)" stroke-width="1" opacity="0.1843137254901961" d="M 227.5 418 L 231 418.5 L 227.5 419 L 227.5 418 Z " /><path fill="rgb(215,197,169)" stroke="rgb(215,197,169)" stroke-width="1" opacity="0.1843137254901961" d="M 235.5 418 L 238 418.5 L 235.5 419 L 235.5 418 Z " /><path fill="rgb(215,197,169)" stroke="rgb(215,197,169)" stroke-width="1" opacity="0.1843137254901961" d="M 278.5 418 L 281 418.5 L 278.5 419 L 278.5 418 Z " /><path fill="rgb(246,199,157)" stroke="rgb(246,199,157)" stroke-width="1" opacity="0.9921568627450981" d="M 277.5 239 Q 291.6 238.4 296 247.5 L 298 253.5 L 298 258.5 L 294 268.5 L 286 280 L 279.5 284 L 271.5 284 L 267 282 L 265 278.5 L 265 273.5 L 262.5 271 Q 259.3 271.8 260 276.5 L 263 284 L 265 284 Q 263.9 286.7 266.5 286 L 268.5 288 L 276.5 289 L 286 286 L 286 284 L 288 284 L 288 282 L 290 282 L 290 280 Q 292.7 281.1 292 278.5 L 294.5 276 L 312 276 L 316 256.5 L 317.5 255 L 327 255 L 327 271.5 L 325 282.5 L 321.5 286 L 315.5 290 L 299.5 296 Q 293.4 295.4 290.5 298 L 279.5 298 L 277 300.5 L 272 309.5 L 255 327.5 L 255 329 Q 252.3 327.9 253 330.5 Q 249.2 331.8 250 336 L 261.5 334 L 276.5 333 L 277.5 334 L 292.5 335 L 300 340.5 L 300 354.5 L 298 359.5 L 298 365.5 L 296 370.5 L 296 376.5 L 292 392.5 L 292 400.5 L 295.5 405 L 311 413.5 L 280.5 414 Q 276.3 412.3 279 410.5 L 281 399.5 L 281 389.5 L 277 369.5 L 283 353 L 266.5 360 L 246.5 366 L 243 359.5 L 241 351.5 L 237.5 347 L 235 348.5 L 245 375.5 Q 244.3 382.2 247 385.5 L 247 403.5 Q 245.5 410 240.5 413 L 226.5 414 L 204.5 409 L 187.5 401 L 181.5 401 L 177 404.5 L 175 408.5 L 179 413.5 L 170.5 414 L 167 411.5 L 167 404.5 Q 170 402.5 169 396.5 Q 171.6 395.1 171 390.5 L 173.5 388 L 178.5 388 L 186.5 392 L 217.5 392 L 223.5 398 L 227 398 L 227 395.5 L 218 381.5 Q 215.2 370 210 362 Q 207.3 363.1 208 360.5 L 204 354.5 L 203 344.5 L 212 325.5 L 218 296 L 223 296 L 223 294.5 Q 225.3 293.3 222.5 292 L 190.5 292 L 184.5 290 L 179.5 290 L 175 288 L 165 263.5 L 162 250 Q 170.8 248 173 253.5 L 188 276 L 198.5 276 L 225.5 270 L 237.5 270 L 248.5 272 L 252.5 271 L 257 267.5 L 261 253.5 L 268.5 243 L 277.5 239 Z " /></svg>